<svg id="Layer_1" data-name="Layer 1" xmlns="http://www.w3.org/2000/svg" viewBox="0 0 125.46 125.47"><defs><style>.cls-1{fill:#CCB862;}</style></defs><title>insta</title><path class="cls-1" d="M62.74,0c-17,0-19.18.07-25.87.38A45.84,45.84,0,0,0,21.65,3.29a30.83,30.83,0,0,0-11.12,7.24A30.71,30.71,0,0,0,3.29,21.64,46,46,0,0,0,.38,36.86C.08,43.56,0,45.7,0,62.73S.08,81.9.38,88.59a46.22,46.22,0,0,0,2.91,15.23,32.13,32.13,0,0,0,18.35,18.35,46.19,46.19,0,0,0,15.23,2.92c6.69.3,8.82.38,25.86.38s19.17-.08,25.86-.38a46.31,46.31,0,0,0,15.24-2.92,32.15,32.15,0,0,0,18.34-18.35,46.71,46.71,0,0,0,2.92-15.23c.3-6.69.37-8.82.37-25.86s-.07-19.17-.37-25.86a46.71,46.71,0,0,0-2.92-15.23,30.71,30.71,0,0,0-7.24-11.11,30.67,30.67,0,0,0-11.11-7.24A46.08,46.08,0,0,0,88.58.38C81.89.07,79.76,0,62.72,0ZM57.11,11.3h5.63c16.75,0,18.73.07,25.35.37a34.68,34.68,0,0,1,11.64,2.16,19.21,19.21,0,0,1,7.21,4.69,19.35,19.35,0,0,1,4.7,7.21,34.7,34.7,0,0,1,2.16,11.65c.3,6.61.36,8.6.36,25.34s-.06,18.73-.36,25.34a34.56,34.56,0,0,1-2.16,11.64,20.81,20.81,0,0,1-11.91,11.9c-2.2.87-5.53,1.88-11.64,2.16-6.62.31-8.6.37-25.35.37s-18.74-.06-25.35-.37a34.7,34.7,0,0,1-11.65-2.16,19.33,19.33,0,0,1-7.21-4.69,19.43,19.43,0,0,1-4.7-7.21,34.7,34.7,0,0,1-2.16-11.65c-.3-6.61-.36-8.6-.36-25.35s.06-18.73.36-25.34a34.76,34.76,0,0,1,2.16-11.65,19.51,19.51,0,0,1,4.7-7.21,19.21,19.21,0,0,1,7.21-4.69,34.37,34.37,0,0,1,11.65-2.17c5.79-.26,8-.34,19.72-.35ZM96.22,21.72a7.53,7.53,0,1,0,7.53,7.53,7.53,7.53,0,0,0-7.53-7.53Zm-33.48,8.8A32.21,32.21,0,1,0,95,62.73,32.22,32.22,0,0,0,62.74,30.52Zm0,11.3A20.91,20.91,0,1,1,41.83,62.73,20.91,20.91,0,0,1,62.74,41.82Z"/></svg>