<svg id="Layer_1" data-name="Layer 1" xmlns="http://www.w3.org/2000/svg" viewBox="0 0 23.62 22.04"><defs><style>.cls-1{fill:#CCB862;}</style></defs><title>sarc-mainsite-revised</title><path class="cls-1" d="M20.21.42H3.41a2.13,2.13,0,0,0-2.2,2.2q0,8.4,0,16.79a2.49,2.49,0,0,0,0,.36,2.19,2.19,0,0,0,2.2,1.84c2.79,0,5.58,0,8.37,0h8.41a2.13,2.13,0,0,0,2.19-2.2V2.63A2.14,2.14,0,0,0,20.21.42ZM7.4,18.43H4.55c-.11,0-.16,0-.16-.15q0-4.59,0-9.18a.85.85,0,0,1,0-.1H7.32c.18,0,.22.05.22.22q0,4.6,0,9.19ZM6,7.09A1.87,1.87,0,0,1,4.08,5.19,1.87,1.87,0,0,1,6,3.29,1.9,1.9,0,1,1,6,7.09Zm13.1,11.34H16.21c-.15,0-.17-.05-.17-.18q0-2.67,0-5.33a1.62,1.62,0,0,0-1.18-1.63,1.57,1.57,0,0,0-1.57.47,1.72,1.72,0,0,0-.42,1.18c0,1.77,0,3.54,0,5.31,0,.15,0,.18-.18.18h-3V9h0c0,.09,0,.33,0,.7v8.63a.34.34,0,0,0,0-.21V17.11c0-1,0-2.53,0-4s0-2.63,0-3.94C9.79,9,9.82,9,10,9h2.66c.16,0,.2,0,.19.2s0,.57,0,.85c0,0,0,.11,0,.12a.08.08,0,0,0,.1-.09,3,3,0,0,1,1.15-1,3.5,3.5,0,0,1,4.54,1.36,3.68,3.68,0,0,1,.57,2q0,2.92,0,5.83C19.22,18.4,19.2,18.43,19.07,18.43Z"/></svg>